<svg width="512" height="512" viewBox="0 0 512 512" fill="none" xmlns="http://www.w3.org/2000/svg">
<rect width="512" height="512" fill="white"/>
<path fill-rule="evenodd" clip-rule="evenodd" d="M364.102 149C382.692 149 398.851 152.261 412.58 158.78C426.306 165.301 436.974 174.449 444.583 186.223C452.193 197.997 455.999 211.863 455.999 227.822V235.413H394.734V233.953C394.734 222.86 392.134 214.347 386.932 208.408C381.731 202.474 374.168 199.504 364.246 199.504C354.227 199.504 346.595 202.474 341.344 208.408C336.094 214.347 333.471 222.86 333.471 233.953V363.427H272.205V227.822C272.205 211.767 276.035 197.851 283.693 186.075C291.351 174.303 302.065 165.179 315.842 158.707C329.617 152.237 345.703 149 364.102 149" fill="#515151"/>
<path fill-rule="evenodd" clip-rule="evenodd" d="M200.738 291.95H445.798V251.107H200.738V291.95Z" fill="#515151"/>
<path fill-rule="evenodd" clip-rule="evenodd" d="M159.898 149C178.296 149 194.382 152.235 208.159 158.705C221.932 165.179 232.65 174.301 240.308 186.075C247.966 197.851 251.794 211.765 251.794 227.822V363.427H190.53V233.953C190.53 222.858 187.905 214.344 182.655 208.408C177.404 202.474 169.769 199.504 159.752 199.504C149.831 199.504 142.27 202.474 137.068 208.408C131.866 214.344 129.264 222.858 129.264 233.953V363.427H68V227.822C68 211.863 71.8047 197.997 79.4141 186.22C87.0235 174.449 97.7168 165.299 111.492 158.78C125.267 152.261 141.403 149 159.898 149V149Z" fill="#515151"/>
</svg>