<?xml version="1.0" encoding="UTF-8"?>
<svg width="596px" height="322px" viewBox="0 0 596 322" version="1.1" xmlns="http://www.w3.org/2000/svg" xmlns:xlink="http://www.w3.org/1999/xlink">
    <title>Group</title>
    <g id="Portfolio-pages" stroke="none" stroke-width="1" fill="none" fill-rule="evenodd">
        <g id="EF" transform="translate(-202, -340)" fill="#535353">
            <g id="Group" transform="translate(212, 340)">
                <path d="M444,0 C472.725303,0 497.694597,4.89637522 518.907882,14.6859191 C540.117901,24.4786696 556.601881,38.2154551 568.359822,55.8962756 C580.117763,73.5770962 586,94.4003187 586,118.365943 L586,129.765166 L491.332245,129.765166 L491.332245,127.571898 C491.332245,110.913961 487.314948,98.129516 479.277089,89.212149 C471.23923,80.301195 459.553143,75.8409082 444.222094,75.8409082 C428.740805,75.8409082 416.946937,80.301195 408.833958,89.212149 C400.720979,98.129516 396.667755,110.913961 396.667755,127.571898 L396.667755,322 L302,322 L302,118.365943 C302,94.2560247 307.918164,73.359052 319.751225,55.6750249 C331.584286,37.9974109 348.14012,24.2958972 369.428525,14.576897 C390.713665,4.86110337 415.568645,0 444,0" id="Fill-3"></path>
                <polygon id="Path" points="230 230 579 230 579 158 230 158"></polygon>
                <path d="M132.001633,0 C160.430048,0 185.285315,4.85789683 206.573965,14.5736905 C227.856083,24.2958972 244.41864,37.9942043 256.251837,55.6750249 C268.085034,73.359052 274,94.2528182 274,118.365943 L274,322 L179.334422,322 L179.334422,127.571898 C179.334422,110.910755 175.277886,98.1263095 167.164813,89.212149 C159.051741,80.301195 147.254471,75.8409082 131.77627,75.8409082 C116.445045,75.8409082 104.76209,80.301195 96.7241383,89.212149 C88.6861868,98.1263095 84.665578,110.910755 84.665578,127.571898 L84.665578,322 L-10,322 L-10,118.365943 C-10,94.4003187 -4.1209619,73.5770962 7.6371143,55.8930691 C19.3951905,38.2154551 35.9185537,24.4754631 57.2039378,14.6859191 C78.4893218,4.89637522 103.422976,0 132.001633,0 L132.001633,0 Z" id="Path"></path>
            </g>
        </g>
    </g>
</svg>